<?xml version="1.0" encoding="utf-8" ?><svg xmlns="http://www.w3.org/2000/svg" xmlns:xlink="http://www.w3.org/1999/xlink" width="1032" height="1032" viewBox="0 0 1032 1032"><defs><linearGradient id="gradient_0" gradientUnits="userSpaceOnUse" x1="166.80855" y1="510.52661" x2="21.168291" y2="491.69824"><stop offset="0" stop-color="#5E6DC5"/><stop offset="1" stop-color="#3FBCDF"/></linearGradient></defs><path fill="url(#gradient_0)" transform="matrix(1.00781 0 0 1.00781 0 7.62939e-06)" d="M145.036 643.698C136.661 643.11 128.363 641.709 120.259 639.517C86.1174 630.251 54.2152 605.574 36.7375 574.847C19.3284 543.811 14.8993 507.15 24.4163 472.861C43.1294 405.994 118.655 358.428 186.646 378.211C184.816 378.668 184.549 378.627 182.69 378.253C181.398 390.955 179.574 407.725 177.613 420.605C177.536 421.109 175.362 423.242 174.819 423.784L174.624 425.003C177.87 425.889 179.554 425.916 182.07 428.169C159.291 420.789 139.522 421.304 117.498 431.994C108.5 436.361 95.9433 446.065 90.4029 454.479C112.879 454.587 138.429 453.914 160.547 454.587C179.554 454.303 208.001 454.954 208.639 480.65C208.791 486.749 204.127 487.809 198.919 488.017C192.925 488.256 186.688 487.989 180.67 487.847C179.3 484.082 177.835 479.359 173.891 477.542C170.504 475.982 165.756 475.557 162.055 475.269C151.965 474.481 91.5794 474.152 85.1478 476.632C82.411 477.687 79.8585 479.672 78.7919 482.48C77.8348 485 78.1949 487.884 79.2992 490.301C80.572 493.088 83.2122 494.454 86.0212 495.298C93.1463 497.439 101.734 496.501 109.134 496.449L143.438 496.37C163.776 496.347 198.862 494.49 210.689 514.828C218.098 527.568 213.431 548.489 199.245 555.071C182.035 563.056 164.395 561.011 146.023 560.997L87.8568 561.047C100.152 576.858 122.668 588.745 142.443 591.229C146.012 591.669 149.597 591.969 153.19 592.127L153.699 592.25C155.015 592.559 156.918 592.512 157.525 592.669C152.679 600.882 152.795 622.503 150.909 632.394C150.744 633.258 147.893 643.217 147.861 643.257L145.036 643.698ZM78.3181 528.086C79.4222 539.849 89.6732 540.009 99.1781 539.928C122.397 539.729 145.586 540.698 168.785 539.488C182.348 538.781 186.786 521.472 171.461 518.479C146.324 515.952 120.462 519.537 95.2303 517.674C88.4495 517.174 81.2938 516.032 74.5953 514.842C73.0074 514.121 72.2376 514.076 70.548 513.796C71.8134 514.797 74.4697 516.571 75.9515 517.015C78.5058 521.338 79.1636 523.086 78.3181 528.086Z"/><path fill="#23374D" fill-opacity="0.019607844" transform="matrix(1.00781 0 0 1.00781 0 7.62939e-06)" d="M70.548 513.796C72.2376 514.076 73.0074 514.121 74.5953 514.842L74.5939 515.605C77.2149 517.019 78.7193 515.72 79.7251 517.302L78.8711 518.322C77.3364 517.993 77.0401 517.248 75.9515 517.015C74.4697 516.571 71.8134 514.797 70.548 513.796Z"/><path transform="matrix(1.00781 0 0 1.00781 0 7.62939e-06)" d="M160.547 454.587C179.554 454.303 208.001 454.954 208.639 480.65C208.791 486.749 204.127 487.809 198.919 488.017C192.925 488.256 186.688 487.989 180.67 487.847C179.3 484.082 177.835 479.359 173.891 477.542C170.504 475.982 165.756 475.557 162.055 475.269C151.965 474.481 91.5794 474.152 85.1478 476.632C82.411 477.687 79.8585 479.672 78.7919 482.48C77.8348 485 78.1949 487.884 79.2992 490.301C80.572 493.088 83.2122 494.454 86.0212 495.298C93.1463 497.439 101.734 496.501 109.134 496.449L143.438 496.37C163.776 496.347 198.862 494.49 210.689 514.828C218.098 527.568 213.431 548.489 199.245 555.071C182.035 563.056 164.395 561.011 146.023 560.997L87.8568 561.047C75.9203 559.3 61.823 561.173 52.0024 551.553C47.6744 548.91 41.6609 532.27 47.4353 529.078C51.4672 526.848 73.2066 527.843 78.3181 528.086C79.4222 539.849 89.6732 540.009 99.1781 539.928C122.397 539.729 145.586 540.698 168.785 539.488C182.348 538.781 186.786 521.472 171.461 518.479C146.324 515.952 120.462 519.537 95.2303 517.674C88.4495 517.174 81.2938 516.032 74.5953 514.842C73.0074 514.121 72.2376 514.076 70.548 513.796C67.597 512.595 65.1307 511.813 61.9488 510.464C46.0752 503.733 41.4874 481.176 51.7611 467.733C62.1836 454.096 84.9033 454.799 100.999 454.913L137.448 455.027C144.624 455.044 153.554 455.461 160.547 454.587Z"/><defs><linearGradient id="gradient_1" gradientUnits="userSpaceOnUse" x1="982.98529" y1="628.98865" x2="789.24432" y2="583.23151"><stop offset="0" stop-color="#F9865A"/><stop offset="1" stop-color="#D93C94"/></linearGradient></defs><path fill="url(#gradient_1)" transform="matrix(1.00781 0 0 1.00781 0 7.62939e-06)" d="M935.544 573.975C956.346 573.84 977.149 573.818 997.952 573.91C985.244 601.435 961.093 625.328 932.363 635.738C910.022 643.833 892.934 641.716 869.736 641.817C867.451 641.827 855.076 641.986 853.632 641.579C845.835 642.114 832.253 641.641 824.091 641.611L762.292 641.6C751.693 641.619 737.745 641.255 727.413 641.986C726.987 623.771 728.069 604.299 727.049 586.164C747.743 585.778 768.594 586.332 789.302 586.196C795.941 586.152 802.737 586.167 809.361 586.425L809.825 586.386C816.423 585.881 828.586 586.313 835.565 586.326L885.581 586.406C909.254 586.429 915.806 588.678 935.544 573.975Z"/><defs><linearGradient id="gradient_2" gradientUnits="userSpaceOnUse" x1="790.04883" y1="612.52399" x2="727.00806" y2="614.97382"><stop offset="0" stop-color="#D54094"/><stop offset="1" stop-color="#C32EAB"/></linearGradient></defs><path fill="url(#gradient_2)" transform="matrix(1.00781 0 0 1.00781 0 7.62939e-06)" d="M727.049 586.164C747.743 585.778 768.594 586.332 789.302 586.196C795.941 586.152 802.737 586.167 809.361 586.425C802.963 589.097 792.928 585.893 790.244 586.871C786.088 590.66 790.147 622.466 789.851 629.323C789.616 634.765 793.169 634.572 789.417 640.574C792.784 641.172 802.163 640.84 806.191 640.826C817.69 640.768 829.188 640.779 840.687 640.86C844.284 640.899 850.599 640.591 853.632 641.579C845.835 642.114 832.253 641.641 824.091 641.611L762.292 641.6C751.693 641.619 737.745 641.255 727.413 641.986C726.987 623.771 728.069 604.299 727.049 586.164Z"/><path transform="matrix(1.00781 0 0 1.00781 0 7.62939e-06)" d="M274.511 453.708C297.008 451.908 300.34 460.295 311.474 476.26C318.268 485.81 324.912 495.467 331.401 505.227C336.203 512.359 342.158 521.671 347.61 528.178C359.545 515.084 369.651 496.443 380.292 482.331C391.678 467.05 396.078 454.896 417.013 453.986C456.533 452.268 451.473 478.743 451.483 508.789L451.47 560.771C441.435 560.353 430.6 560.578 420.501 560.613C420.497 551.886 421.402 486.421 419.559 482.797C419.15 481.992 419.374 482.256 418.463 481.955L416.957 483.311C405.452 498.201 395.382 515.189 384.105 530.355C377.541 539.181 367.624 557.023 356.638 560.168C348.233 562.574 334.856 561.382 329.04 554.06C323.273 546.802 318.207 539.161 312.938 531.477C304.479 519.07 295.938 506.718 287.314 494.424C285.24 491.475 279.624 482.789 277.024 481.229L276.123 481.584C274.152 484.52 275.004 502.741 274.991 507.146L274.999 560.191C265.56 560.256 253.155 560.662 243.941 560.091L243.842 509.653C243.789 501.51 243.626 493.017 243.664 484.894C243.774 461.327 253.092 456.006 274.511 453.708Z"/><path transform="matrix(1.00781 0 0 1.00781 0 7.62939e-06)" d="M499.302 455.693C501.262 455.371 509.194 455.478 511.456 455.483L534.98 455.556C562.924 455.641 591.654 455.229 619.644 456C622.693 456.304 624.943 455.994 627.085 458.504C631.256 463.392 630.461 477.42 622.517 478.249C617.533 478.769 611.306 478.575 606.236 478.572L578.736 478.539L536.452 478.453C528.663 478.434 519.267 478.646 511.587 478.14C511.687 484.837 511.581 491.767 511.562 498.483C530.535 498.525 549.51 498.442 568.482 498.234C582.063 498.022 595.88 497.207 609.433 497.871C611.313 497.963 614.866 498.024 616.297 499.27C618.135 500.871 618.376 504.899 618.409 507.111C618.446 509.559 618.393 515.567 616.652 517.258C612.011 521.766 570.826 519.759 563.125 519.633L511.522 519.58C511.413 524.62 509.977 536.796 516.176 538.347C523.937 540.289 534.643 539.571 542.688 539.564L594.193 539.475C603.089 539.446 612.031 539.288 620.908 539.511C624.806 539.609 628.434 540.561 629.422 544.677C630.219 547.994 630.479 554.844 628.636 557.775C625.933 562.076 616 561.071 611.506 561.091L592.737 561.291C574.965 561.463 557.192 561.53 539.42 561.493C528.478 561.493 516.472 562.308 505.749 560.627C480.735 556.705 481.219 541.525 481.369 522.067L481.457 496.796C481.467 492.435 481.462 487.914 481.444 483.56C481.373 466.787 479.385 457.767 499.302 455.693Z"/><path transform="matrix(1.00781 0 0 1.00781 0 7.62939e-06)" d="M882.982 455.703C889.611 455.189 905.86 455.466 910.447 460.309C920.934 471.379 930.656 485.273 939.875 497.491C956.101 518.625 972.161 539.887 988.052 561.274C978.038 560.881 968.005 561.52 958.221 561.412C949.531 561.315 941.171 547.102 935.89 540.437C921.56 540.614 907.092 540.524 892.75 540.528C874.172 540.688 855.593 540.519 837.022 540.021C832.764 546.484 825.246 555.436 819.977 560.953C809.759 561.376 796.929 561.044 786.516 561.022C789.347 556.725 792.278 553.019 795.489 549.015C817.213 521.919 838.859 494.768 860.173 467.348C867.231 458.268 871.992 456.804 882.982 455.703ZM853.694 519.914C859.292 519.079 881.679 519.886 889.125 519.822C899.038 519.739 912.153 519.258 921.815 519.898C915.754 512.418 893.68 481.577 887.627 478.823C882.979 481.626 859.246 513.221 853.694 519.914Z"/><defs><linearGradient id="gradient_3" gradientUnits="userSpaceOnUse" x1="985.22937" y1="421.03195" x2="861.33588" y2="465.87692"><stop offset="0" stop-color="#F0B145"/><stop offset="1" stop-color="#F3606B"/></linearGradient></defs><path fill="url(#gradient_3)" transform="matrix(1.00781 0 0 1.00781 0 7.62939e-06)" d="M833.742 374.056C846.958 374.063 861.77 374.71 874.81 374.234C912.578 372.856 941.909 376.265 970.376 404.613C986.636 421.047 996.837 442.513 999.307 465.5C1000.32 474.957 1000.09 485.1 1000.07 494.651C1000.05 503.109 1000.13 512.107 999.671 520.539C989.024 508.887 978.707 496.938 968.73 484.707C953.531 466.087 935.937 438.172 912.308 430.891C901.434 427.54 886.098 428.113 874.511 428.117C869.116 427.698 852.985 428.888 849.55 427.488C848.965 419.321 836.668 402.971 834.669 393.717C833.478 388.204 833.695 382.353 832.235 376.756C831.934 375.601 833.087 374.627 833.742 374.056Z"/><path transform="matrix(1.00781 0 0 1.00781 0 7.62939e-06)" d="M655.275 456.069C662.904 455.746 672.263 455.981 680.018 455.97L726.822 455.93C749.159 455.912 771.7 455.738 794.037 455.968C796.131 456.116 801.952 456.345 803.497 457.626C808.238 461.556 807.426 471.869 803.946 476.347C802.914 477.675 799.712 478.309 798.175 478.463C791.605 479.121 784.822 478.897 778.21 478.871L744.18 478.688L744.08 504.875L744.314 538.806C744.35 544.108 744.694 553.898 743.791 558.67C742.037 561.419 738.323 561.514 735.422 561.348C729.315 561.001 718.682 562.788 713.355 560.173C710.895 555.874 712.115 488.992 712.408 478.655C705.014 478.851 654.795 479.377 650.658 477.614C649.452 477.099 648.967 475.846 648.628 474.653C647.585 470.985 647.268 462.873 649.315 459.55C650.616 457.438 653.025 456.696 655.275 456.069Z"/><path fill="#E94C79" transform="matrix(1.00781 0 0 1.00781 0 7.62939e-06)" d="M729.189 373.967L833.742 374.056C833.087 374.627 831.934 375.601 832.235 376.756C833.695 382.353 833.478 388.204 834.669 393.717C836.668 402.971 848.965 419.321 849.55 427.488C852.985 428.888 869.116 427.698 874.511 428.117C860.518 429.118 837.933 428.474 823.42 428.48L729.361 428.429C728.809 410.975 729.332 391.627 729.189 373.967Z"/><defs><linearGradient id="gradient_4" gradientUnits="userSpaceOnUse" x1="258.39923" y1="620.25647" x2="155.56758" y2="594.74286"><stop offset="0" stop-color="#7E4AB5"/><stop offset="1" stop-color="#596BC6"/></linearGradient></defs><path fill="url(#gradient_4)" transform="matrix(1.00781 0 0 1.00781 0 7.62939e-06)" d="M153.19 592.127C166.27 591.578 185.199 588.941 195.715 581.263C209.994 570.839 212.993 572.348 230.378 571.834C243.926 571.434 258.401 571.816 272.146 571.399C270.271 576.471 266.907 581.329 263.957 585.88C251.068 605.76 232.164 621.85 210.688 631.831C192.943 640.079 164.536 646.288 145.036 643.698L147.861 643.257C147.893 643.217 150.744 633.258 150.909 632.394C152.795 622.503 152.679 600.882 157.525 592.669C156.918 592.512 155.015 592.559 153.699 592.25L153.19 592.127Z"/><defs><linearGradient id="gradient_5" gradientUnits="userSpaceOnUse" x1="261.35303" y1="402.93869" x2="173.52884" y2="422.37051"><stop offset="0" stop-color="#864AB5"/><stop offset="1" stop-color="#546EC7"/></linearGradient></defs><path fill="url(#gradient_5)" transform="matrix(1.00781 0 0 1.00781 0 7.62939e-06)" d="M186.646 378.211C215.57 383.02 253.767 414.292 270.988 438.112L271.388 438.674C256.495 447.877 247.163 451.706 229.07 451.209C227.385 451.163 219.363 451.213 218.041 450.708C211.043 448.041 204.412 440.64 197.698 436.561C191.911 433.044 188.033 430.935 182.07 428.169C179.554 425.916 177.87 425.889 174.624 425.003L174.819 423.784C175.362 423.242 177.536 421.109 177.613 420.605C179.574 407.725 181.398 390.955 182.69 378.253C184.549 378.627 184.816 378.668 186.646 378.211Z"/></svg>